# xmcd
#
# Track frame offsets:
#	183
#	12000
#	32448
#	42090
#	53350
#	69795
#	87673
#	97605
#	116938
#	128740
#	137940
#	151105
#
# Disc length: 2205 seconds
#
# Revision: 1
# Processed by: cddbd v1.4PL0 Copyright (c) Steve Scherf et al.
# Submitted via: EasyCDDAExtractor 5.1.0
#
DISCID=87089b0c
DTITLE=frank sinatra - Strangers In The Night
DYEAR=1900
DGENRE=Pop
TTITLE0=Strangers In The Night
TTITLE1=My Way
TTITLE2=All Of Me
TTITLE3=My Funny Valentine
TTITLE4=Everybody Loves Somebody Sometime
TTITLE5=Night And Day
TTITLE6=Chicago
TTITLE7=September Song
TTITLE8=I Could Have Danced All Night
TTITLE9=My Blue Heaven
TTITLE10=Dreams
TTITLE11=Ebb Tide
EXTD=
EXTT0=
EXTT1=
EXTT2=
EXTT3=
EXTT4=
EXTT5=
EXTT6=
EXTT7=
EXTT8=
EXTT9=
EXTT10=
EXTT11=
PLAYORDER=
